<?xml version="1.0" encoding="utf-8"?>
<!-- Generator: Adobe Adobe Illustrator 24.2.0, SVG Export Plug-In . SVG Version: 6.00 Build 0)  -->
<svg version="1.1" id="Layer_1" xmlns="http://www.w3.org/2000/svg" xmlns:xlink="http://www.w3.org/1999/xlink" x="0px" y="0px"
	 viewBox="0 0 1190.55 841.89" style="enable-background:new 0 0 1190.55 841.89;" xml:space="preserve">
<g>
	<path d="M60.4,579.71c2.23-24.94,4.45-48.93,1.86-72.98c-1.79-16.64-1.08-33.66-10.19-49.03c-6.02-10.15-2.37-14.08,9.43-13.69
		c28.72,0.94,57.44,1.88,86.08,4.47c13.52,1.22,27.08,5.41,40.4-1.65c3-1.59,6.45,0.37,9.14,2.45
		c15.03,11.64,26.48,33.98,12.93,57.25c-8.04,13.81-20.52,23.46-29.69,36.81c4.6,9.34,13.2,15.43,19.82,22.92
		c13.96,15.77,19.72,35.51,28.38,53.92c6.73,14.3,6.99,28.47,2.18,43.39c-3.99,12.4-12.02,19.27-23.69,23.23
		c-27.25,9.24-55.18,5.72-82.72,4.23c-22.55-1.22-44.94-0.49-67.39,0.14c-4.51,0.13-9.69,2.08-11.95-3.73
		c-1.92-4.95,0.19-8.56,4.53-11.96c5.58-4.38,8.11-10.91,8.88-18.49C60.97,631.6,60.1,606.14,60.4,579.71z M117.62,662.09
		c12.02,11.19,26.69,12.04,41.43,10.22c12.26-1.51,23.02-12.39,22.56-23.07c-0.48-11.31-2.53-22.64-7.14-33.28
		c-5.18-11.96-14.06-20.86-21.84-30.79c-9.77-12.47-21.43-15.23-35.68-11.19c-5.39,1.53-8.65,4.03-8.54,10.36
		c0.22,13.86,0.54,27.74,0.12,41.6C108.16,638.52,111.24,650,117.62,662.09z M106.71,526.72c2.96,20.78,7.6,24.21,27.32,20.26
		c1.6-0.32,3.23-0.51,4.83-0.83c23.88-4.82,37.52-38.06,24.26-59.12c-5.6-8.89-31.53-19.23-41.12-15.79
		c-7.21,2.59-12.9,6.54-14.28,16.01C105.87,499.84,107.26,512.33,106.71,526.72z"/>
	<path d="M349.48,664.83c-6.39-7.54-9.12-16.35-12.83-24.51c-8.62-18.95-16.8-38.07-32.16-50.94c0.06-4.03,1.49-5.51,3.52-5.89
		c24.39-4.55,35.42-23.72,45.73-44.16c9.03-17.89,3.59-34.5-3.84-50.42c-6.21-13.29-15.09-17.86-24.54-15.9
		c-11.99,2.49-18.92,8.94-19.8,24.09c-2.17,37.42-6.51,74.71-1.75,112.49c3.04,24.12,9.8,45.98,21.71,66.62
		c5.35,9.27,2.84,14.45-7.04,15.52c-20.67,2.24-41.04-1.58-61.43-4.19c-4.83-0.62-6.29-4.08-4.36-9.05
		c11.39-29.28,10.45-60.09,10.48-90.83c0.01-13.89-0.1-27.92,1.68-41.62c2.29-17.62,0.19-35.26,1.82-52.78
		c1.23-13.26-5.18-24.27-8.24-36.26c-2.52-9.88-1.05-11.95,8.65-12.77c11.21-0.95,22.05,2.59,33.18,2.28
		c17.6-0.49,35.1-2.94,52.75-2.29c41.87,1.55,57.74,28.94,53.35,66.41c-3.16,26.97-16.54,47.08-39.95,59.78
		c-5.64,3.06-7.8,7.89-5.34,14.47c10.86,29.06,23.92,56.77,45.1,79.51c1.13,1.21,2.13,2.74,3.52,3.48c3.31,1.76,8.37,1.83,7.34,7.63
		c-0.93,5.25-5.22,7.75-9.46,9.48c-15.97,6.51-41.82-0.52-53.13-14.19C352.93,669,351.46,667.19,349.48,664.83z"/>
	<path d="M1020.56,673.76c-23.14-12.82-32.45-33.57-38.99-58.42c-7.04-26.75-7.83-53.81-7.9-80.57
		c-0.08-28.95,4.68-58.05,29.68-78.03c19.11-15.27,40.58-15.89,63.06-13.57c21.34,2.2,42.63,6.63,64.22,1.38
		c8.48-2.06,10.58,0.67,8.84,9.63c-1.68,8.62-3.24,17.29-5.41,25.79c-2.41,9.42-8.1,14.18-17.58,17.94
		c-21.83,8.66-41.58-1.2-62.08-4.12c-9.04-1.29-17.93-3.83-27.15-3.22c-9.12,0.6-15.83,4.34-19.81,13.84
		c-3.73,8.9,1.21,14.16,5.41,20.1c11.95,16.92,29.19,20.83,47.68,18.93c14.01-1.44,28.79-1.17,40.8-11.94
		c4.51,8.13,9.72,14.17,10.99,22.67c2.21,14.7-3.78,23.58-17.88,23.81c-13.7,0.23-27.21-2.1-40.52-5.79
		c-9.09-2.52-18.31-5.1-27.62-6.06c-11.82-1.22-16.51,5.78-13.73,17.78c3.53,15.22,13.93,24.34,26.13,31.31
		c16.81,9.59,33.9,18.41,53.95,18.88c15.24,0.36,28.05-3.97,39.27-14.77c7.86-7.56,11.24-5.93,13.19,4.85
		c6.55,36.23-15.04,51.84-44.77,62.12C1071.7,696.16,1046.55,685.38,1020.56,673.76z"/>
	<path d="M414.28,360.96c-14,2.01-26.88,5.93-40.39,6.04c-5.24,0.04-10.24,0.21-14.84-1.92c11.74-34.37,7.02-68.88,6.15-103.2
		c-0.42-16.26,2.28-32.27,5.14-48.27c3.02-16.87,0.74-32.85-10.25-46.61c-0.72-0.9-0.67-2.47-0.98-3.76
		c3.8-3.36,8.39-3.65,12.25-3.28c36.65,3.56,72.5-8.43,109.16-5.7c8.13,0.61,16.5-3.8,24.88-4.97c11.24-1.57,15.63,2.18,12.92,13.48
		c-6.95,28.91,2.34,55.36,8.67,82.59c4.17,17.96,9.33,35.6,10.34,54.62c1.01,19.09,3.2,39.68,24.07,54.05
		c-13.85,1.54-24.58,2.93-35.34,3.88c-15.26,1.34-30.65,1.27-45.77,4.29c-2.54,0.51-5.31,1.46-7-1.63
		c-1.37-2.49,0.37-4.39,1.38-6.52c4.15-8.75,11.08-16.3,12.01-26.43c1.73-18.9,0.01-37.8-2.29-56.5
		c-1.08-8.76-9.53-12.96-18.09-10.6c-11.34,3.12-22.56,6.76-33.85,10.07c-9.87,2.9-16.58-0.64-21.07-10.92
		c-2.71-6.21,0.97-20.68,6.22-24.05c2.73-1.75,5.74-1.5,8.46-0.11c7.18,3.66,15.07,4.39,22.72,5.74
		c17.78,3.14,30.62-9.51,28.81-27.79c-0.07-0.68-0.13-1.35-0.22-2.02c-1.7-12.27-1.03-26.8-14.35-32.16
		c-16.67-6.71-35.93,1.66-46.4,17.34c-16.74,25.09-20.59,52.51-15.1,82.15c2.78,15.04,5.05,29.87,14.27,42.62
		c10.58,14.63,26.81,19.49,42.99,12.02c5.61,12.67,0.27,23.76-12.49,26.74C435.89,362.55,425.53,362.29,414.28,360.96z"/>
	<path d="M778.62,655.85c-15.69,23.77-37.49,33.92-63.8,34.18c-34.23,0.33-64.3-9.4-85.12-40.14c-5.18-7.65-7.58-16.61-9.63-25.22
		c-6.6-27.69-9.77-55.82-8.5-84.56c1.26-28.54,10.48-54.31,24.57-77.96c8.83-14.82,24.86-19.93,41.02-19.79
		c21.83,0.19,43.65,2.28,65.47,3.6c6.52,0.39,13.02,1.26,19.4-1.14c7.12-2.68,10.69-0.51,9.84,7.84
		c-0.65,6.41-0.85,12.87-1.55,19.28c-2.38,21.88-12.85,29.42-34.05,27.2c-21.71-2.28-42.65-9.91-64.84-8.81
		c-16.16,0.8-26.41,8.23-27.32,21.5c-0.83,12.23,11.69,26.6,25.24,28.07c19.85,2.16,39.71,3.42,58.44-6.3
		c7.26-3.77,11.72-0.48,14.73,6.49c6.85,15.87-2.59,31.99-19.16,31.8c-16.4-0.18-32.24-4.05-47.97-8.88
		c-15.12-4.64-26.82,4.43-24.85,18.71c0.77,5.6,3,10.95,6.37,15.67c22.07,30.91,52.31,40.9,87.77,36.23
		c9.3-1.23,15.44-9.57,22.34-15.59c8.78-7.67,14.16-6.37,17.38,5.09C787.63,634.66,784.1,645.14,778.62,655.85z"/>
	<path d="M435.9,606c-4.32-8.38-5.85-16.79-6.34-25.24c-1.66-28.25-1.19-56.59,8.34-83.38c7.34-20.65,16.85-40.83,38.42-49.99
		c12.59-5.35,25.98-5.51,39.41-4.4c18.19,1.5,36.34,3.85,54.64,3.67c2.68-0.03,5.07-0.67,7.56-1.65
		c11.45-4.53,14.13-2.71,13.64,10.23c-0.54,14.2-1.08,28.59-14.26,37.88c-6.29,4.44-13.54,5.88-20.46,5.2
		c-16.55-1.62-33.29-1.27-49.66-4.86c-12.88-2.82-25.48-0.7-37.67,3.4c-5.99,2.01-10.77,7.13-11.21,14.01
		c-0.58,9.03,1.08,18.09,9.45,23.07c13.03,7.75,27.78,10.86,42.33,10.07c12.36-0.66,25.31-2.08,36.4-9.77
		c6.47-4.48,12.57-2.03,15.87,4.36c5.09,9.83,7.62,20.52,0.68,30.75c-5.92,8.72-15.25,8.51-24.03,7.88
		c-12.43-0.89-23.88-6.4-35.79-9.73c-7.72-2.16-15.5-2.97-23.23-3.21c-11.53-0.37-18.71,13.41-12.85,24.12
		c19.49,35.62,66.13,52.84,99.94,39.12c6.69-2.72,11.8-7.15,16.45-12.23c3.49-3.82,7.33-4.37,11.55-3.34
		c5.31,1.3,4.09,6.23,4.28,10.1c1.94,39.71-23.09,65.12-62.07,64.51c-26.67-0.41-51.73-4.77-73.61-22.09
		c-5.6-4.43-9.98-9.61-13.28-15.77C443.38,635.59,438.84,621.5,435.9,606z"/>
	<path d="M913.58,537.33c-14.18,23.11-28.43,45.27-39.61,69.39c-8.68,18.74-1.45,32.07,18.64,33.19c14.4,0.8,27.51-1.18,34.63-16.77
		c1.44-3.16,4.72-3.25,7.7-3.48c11.35-0.88,21.67,3.24,27.07,12.91c5.12,9.16,3.91,20.36-1.26,30.2
		c-9.97,18.97-26.77,25.58-46.03,24.81c-39.22-1.56-78.44-1.12-117.66-1.47c-5.18-0.05-10.55-1.15-12.6-6.18
		c-2.18-5.35,2.37-9.16,5.62-12.91c25.26-29.12,50.49-58.37,70.79-91.5c10.01-16.34,21.53-32.14,24.54-52.43
		c2.8-18.89-5.55-30.85-24.17-32.55c-15.82-1.45-30.59,1.4-43.68,11.09c-5.09,3.77-10.59,4.58-15.62,1.71
		c-5.67-3.23-2.8-9.06-1.62-13.78c1.84-7.36,2.24-14.66,0.91-22.13c-3.4-19.13,2.68-27.35,21.57-28.94
		c10.47-0.88,20.88,0.22,31.26,1.73c31.57,4.59,63.34,0.88,94.99,2.33c1.3,0.06,2.62-0.19,3.92-0.15c4.93,0.17,10.87,0.1,13.3,4.67
		c2.62,4.92-2.07,9.35-4.76,13.29C944.67,485.12,926.28,508.85,913.58,537.33z"/>
	<path d="M597.57,282.58c1.37-28.99,2.53-57.06,5.94-85.02c1.29-10.57,1.71-21.58-4.09-31.73c-3.35-5.86-1.72-10.8,5.91-10.94
		c7.83-0.14,15.82-0.79,23.48,0.49c11.42,1.91,22.82,1.62,34.23,1.53c16.03-0.13,31.95-0.34,47.6,4.53
		c7.51,2.33,15.43,3.34,22.6-2.08c3.54-2.68,6.02,0.06,8.59,2.22c13.82,11.64,14.67,27.37,11.56,43.5
		c-3.83,19.86-9.52,39.34-13.32,59.21c-3.41,17.85-8.48,35.39-7.54,54.14c0.72,14.27,5.12,25.57,16.15,33.95
		c3.16,2.4,5.43,5.24,4.4,9.33c-1.19,4.7-5.31,4.37-8.89,4.38c-15.04,0.05-30.09,0.13-45.13-0.02
		c-10.95-0.11-14.93-4.07-14.51-15.54c0.79-21.39,4.57-42.34,9.35-63.16c3.77-16.39,7.62-32.87,9.7-49.54
		c1.84-14.72,1.83-30.01-5.66-43.55c-7.02-12.69-20.32-18.61-32.11-15.43c-9.1,2.46-16.15,13.44-17.41,27.16
		c-3.07,33.39-6.21,66.77-9.15,100.17c-1.31,14.82,4.37,27.6,11.64,39.8c2.35,3.94,4.7,7.87,7.03,11.78
		c-3.6,3.44-7.37,2.23-10.77,2.23c-20.93,0.02-41.85-0.18-62.78-0.27c-4.8-0.02-9.34-0.34-9.84-6.92
		c11.38-5.44,13.5-16.47,15.55-27.36C592.71,311.47,594.98,297.46,597.57,282.58z"/>
	<path d="M276.32,277.99c0.14-7.61-4.47-12.07-7.8-16.9c-10.38-15.07-20.1-30.82-35.27-41.54c-6.83-4.83-14.78-7.04-22.39-9.71
		c-7-2.46-16.4,4.48-17.35,12.58c-0.83,7-1.61,14.69,0.27,21.25c11.06,38.52,22.62,76.88,47.27,109.17
		c7.35,9.62,16.79,16.67,25.16,25.02c1.91,1.9,4.08,3.36,3.34,8.56c-26.44-0.47-50.46,12.76-76.08,17.44
		c-2.01-5.71,0.92-8.26,2.04-11.28c2.58-6.93,2.92-13.77,0.71-20.87c-8.31-26.7-18.25-52.75-28.52-78.69
		c-7.27-18.36-13.88-37.03-20.24-55.76c-2.93-8.61-7.17-15.9-14.39-20.99c-3.17-2.24-4.64-4.73-3.56-8.44
		c1.23-4.23,4.73-2.08,7.36-2.72c10.74-2.61,21.9-3.84,32.35-6.62c24.2-6.44,49.42-8.27,72.73-19.38
		c16.87-8.04,30.12,3.99,41.37,15.56c23.26,23.93,27.77,54.73,27.77,86.93c0,16.16-1.32,32.3-11.68,45.1
		c-12.75,15.74-30.51,19.91-49.43,18.23c-7.97-0.71-15.55-10.12-15.21-16.38c0.39-7.05,10.89-21.22,16.52-22.46
		c4.78-1.05,7.26,0.98,8.61,5.75c1.43,5.06,3.92,9.85,9.88,9.67c5.3-0.16,6.15-5.42,7.89-9.3
		C282.78,300.88,281.07,289.76,276.32,277.99z"/>
	<path d="M897.37,373.11c26.84,3.49,47.7-8.19,43.8-32.42c-1.83-11.39-9.57-19.96-16.72-28.15c-4.2-4.82-10.28-8.32-15.01-12.6
		c-24.44-22.13-37.62-54.54-4.83-83.25c8.19-7.17,16.99-13.19,26.55-18.52c10.16-5.66,19.02-5.45,29.63-2.28
		c28.08,8.4,56.48,15.69,84.79,23.27c3.11,0.83,6.47,0.62,9.71,0.91c2.56,0.23,5.47-0.09,6.55,3.2c0.91,2.79,0.36,5.43-1.78,7.45
		c-10.38,9.79-21,19.43-33.66,25.79c-7.87,3.95-16.05,0.46-23.61-2.84c-20.39-8.91-40.78-17.85-61-27.19
		c-7.3-3.37-13.51-2.72-18.41,3.56c-4.76,6.09-0.46,11.58,2.6,16.66c11.23,18.68,28.08,31.75,43.48,46.2
		c11.04,10.36,22.89,19.79,34.12,29.95c3.25,2.94,4.46,7.26,3.97,12.02c-3.18,30.49-29.24,55.95-57.15,62.95
		c-23.58,5.91-45.89,3.5-68.52-1.61c-13.48-3.05-23.21-13.01-29.47-24.95c-4.19-7.98-0.98-17.87,4.97-24.57
		c5.88-6.61,14.54-7.02,22.8-5.55c4.18,0.74,4.22,4.23,3.52,8.01C881.22,362.63,884.57,368.64,897.37,373.11z"/>
	<path d="M843.34,250.48c-14.05,20.62-30.52,21.01-45.48,1.68c-5.7-7.37-10.69-14.57-11.7-24.89c-2.07-21.17,12.22-30.75,25.2-41.16
		c8.26-6.63,16.51-13.05,23.1-21.54c7.18-9.26,14.89-9.45,22.7-0.76c13.36,14.86,15.83,32.73,6.3,51.28
		C857.37,226.94,850.36,238.29,843.34,250.48z"/>
</g>
</svg>
