<svg width="44" height="44" viewBox="0 0 44 44" fill="none" xmlns="http://www.w3.org/2000/svg">
<path d="M12.8333 13.0752V8.27871C12.8333 6.13281 12.8333 5.05986 13.5229 4.46178C14.2125 3.86369 15.2747 4.01543 17.399 4.3189L33.3485 6.59741C35.8047 6.94828 37.0327 7.12372 37.7664 7.96961C38.5 8.8155 38.5 10.056 38.5 12.5371V22V31.4629C38.5 33.944 38.5 35.1845 37.7664 36.0304C37.0327 36.8763 35.8047 37.0517 33.3485 37.4026L17.399 39.6811C15.2747 39.9846 14.2125 40.1363 13.5229 39.5382C12.8333 38.9401 12.8333 37.8672 12.8333 35.7213V31.2876" stroke="#33363F" stroke-width="4"/>
<path d="M29.3333 22L30.8951 20.7506L31.8946 22L30.8951 23.2494L29.3333 22ZM7.33334 24C6.22877 24 5.33334 23.1046 5.33334 22C5.33334 20.8954 6.22877 20 7.33334 20V24ZM23.5617 11.5839L30.8951 20.7506L27.7716 23.2494L20.4383 14.0827L23.5617 11.5839ZM30.8951 23.2494L23.5617 32.4161L20.4383 29.9173L27.7716 20.7506L30.8951 23.2494ZM29.3333 24H7.33334V20H29.3333V24Z" fill="#33363F"/>
</svg>
